<?xml version="1.0" encoding="UTF-8"?>
<svg xmlns="http://www.w3.org/2000/svg"
     viewBox="0 0 2000 1000"
     fill="none"
     stroke="#00bfff"
     stroke-width="2"
     stroke-linejoin="round"
     stroke-linecap="round">

  <!-- North & South America -->
  <path d="M140 340 L160 320 L170 300 L190 280 L200 270 L210 260 L240 260 L270 270 L300 300 L310 340 L320 380 L310 420 L280 460 L250 480 L220 490 L190 520 L180 560 L200 600 L240 640 L270 680 L300 710 L320 750 L330 790 L320 820 L290 840 L260 830 L230 800 L200 750 L180 700 L160 660 L140 620 L120 580 L100 540 L90 480 L100 440 L120 400 L140 340 Z"/>

  <!-- Europe, Asia, and Africa -->
  <path d="M860 200 L900 180 L940 160 L980 150 L1040 140 L1080 160 L1120 200 L1140 240 L1160 280 L1180 340 L1200 380 L1240 420 L1280 440 L1320 460 L1360 470 L1400 460 L1420 440 L1440 400 L1440 360 L1420 320 L1400 280 L1380 260 L1340 240 L1300 220 L1260 200 L1220 180 L1180 160 L1140 140 L1100 120 L1060 100 L1020 80 L980 70 L940 60 L900 60 L860 80 L820 100 L780 120 L740 140 L700 160 L660 180 L620 200 L580 220 L540 240 L500 260 L460 280 L420 300 L400 320 L380 360 L400 400 L420 440 L440 480 L460 520 L480 560 L500 600 L520 640 L540 680 L560 720 L580 760 L600 800 L640 820 L680 840 L720 860 L760 860 L800 840 L840 800 L860 760 L880 720 L900 680 L920 640 L940 600 L960 560 L980 520 L1000 480 L1020 440 L1040 400 L1060 360 L1080 320 L1100 280 L1120 240 L1140 200 L1160 160 L1180 120 L1200 80 L1220 60 L1240 50 L1260 50 L1280 60 L1300 80 L1320 100 L1340 120 L1360 140 L1380 160 L1400 180 L1420 200 L1440 220 L1460 240 L1480 260 L1500 280 L1520 300 L1540 320 L1560 340 L1580 360 L1600 380 L1620 400 L1640 420 L1660 440 L1680 460 L1700 480 L1720 500 L1740 520 L1760 540 L1780 560 L1800 580 L1820 600 L1840 620 L1860 640 L1880 660 L1900 680 L1920 700"/>

  <!-- Australia & Oceania -->
  <path d="M1680 780 L1700 760 L1720 760 L1740 780 L1760 800 L1780 820 L1800 840 L1820 860 L1840 880 L1860 880 L1880 860 L1880 820 L1860 780 L1840 760 L1820 740 L1800 720 L1780 700 L1760 700 L1740 720 L1720 740 L1700 760 L1680 780 Z"/>

  <!-- Antarctica outline (simplified) -->
  <path d="M100 940 L300 920 L500 930 L700 940 L900 950 L1100 960 L1300 940 L1500 930 L1700 940 L1900 950"/>

</svg>
